<svg xmlns="http://www.w3.org/2000/svg" viewBox="30.24 33.24 194.18 194.18">
<defs>
  <radialGradient id="fw-icon-grad" cx="50%" cy="42%" r="65%">
    <stop offset="0%" stop-color="#F2C94C"/>
    <stop offset="55%" stop-color="#E85D4A"/>
    <stop offset="100%" stop-color="#F2967F"/>
  </radialGradient>
  <radialGradient id="fw-icon-grad-soft" cx="50%" cy="42%" r="65%">
    <stop offset="0%" stop-color="#F2C94C" stop-opacity="0.22"/>
    <stop offset="55%" stop-color="#E85D4A" stop-opacity="0.16"/>
    <stop offset="100%" stop-color="#F2967F" stop-opacity="0.10"/>
  </radialGradient>
  <linearGradient id="fw-icon-grad-line" x1="2" y1="2" x2="22" y2="22" gradientUnits="userSpaceOnUse">
    <stop offset="0%" stop-color="#F2C94C"/>
    <stop offset="100%" stop-color="#E85D4A"/>
  </linearGradient>
</defs>
  
    <g transform="translate(0,256) scale(0.1,-0.1)" fill="url(#fw-icon-grad)" stroke="url(#fw-icon-grad)" stroke-width="18" stroke-linejoin="round">
<path d="M1917 2190 c-3 -8 -8 -27 -11 -42 -5 -21 -14 -29 -41 -34 -19 -3 -35
-10 -35 -14 0 -4 16 -11 35 -14 27 -5 36 -13 41 -34 12 -54 16 -57 28 -17 9
32 18 42 44 50 17 5 32 12 32 15 0 3 -15 10 -32 15 -26 8 -35 18 -44 50 -7 24
-14 34 -17 25z m15 -106 c-8 -14 -10 -14 -21 0 -11 13 -11 19 0 32 11 14 13
14 21 0 5 -9 5 -23 0 -32z"/>
<path d="M1290 2024 c-27 -8 -68 -11 -102 -8 -52 5 -65 3 -127 -30 -37 -19
-101 -42 -141 -50 -67 -14 -78 -20 -134 -74 -34 -33 -88 -72 -120 -88 -59 -29
-89 -60 -121 -124 -10 -19 -41 -56 -69 -81 -45 -40 -53 -54 -63 -104 -9 -39
-25 -74 -53 -112 -23 -29 -40 -61 -38 -69 2 -11 82 -43 243 -100 132 -46 241
-84 242 -84 1 0 11 -17 23 -38 43 -76 141 -118 249 -108 l65 6 -43 -44 -42
-43 23 -26 c60 -67 170 -67 229 0 l32 37 -43 37 -43 37 33 41 c34 42 50 51 50
28 0 -21 40 -90 72 -124 46 -48 133 -82 235 -92 48 -5 104 -16 123 -24 l34
-15 -54 -16 c-31 -9 -145 -23 -260 -31 -268 -19 -367 -41 -492 -107 -53 -28
-148 -110 -148 -128 0 -4 23 -3 51 2 88 16 162 -6 311 -94 71 -42 171 -78 217
-78 20 0 31 8 45 35 38 70 113 110 279 149 155 37 230 79 273 152 13 22 24 51
24 63 0 12 9 47 20 78 26 75 25 105 -5 142 -40 47 -80 55 -219 45 -67 -4 -173
-8 -236 -8 -109 -1 -118 1 -170 29 l-55 29 90 7 c56 5 128 20 190 39 55 17
111 35 125 38 17 5 26 16 28 32 6 48 34 129 47 134 26 10 147 -14 195 -39 58
-29 83 -83 63 -136 -10 -26 -9 -29 7 -29 11 0 31 11 47 24 28 24 28 24 14 72
-28 95 -26 143 9 207 30 56 30 60 15 84 -27 40 -89 63 -176 63 -137 0 -258
-52 -392 -172 -44 -39 -73 -58 -83 -54 -9 3 -14 10 -12 14 8 22 311 276 431
361 64 47 64 72 -2 106 -28 13 -64 43 -82 65 -24 30 -46 44 -94 60 -34 11 -86
39 -116 60 -50 38 -56 40 -128 40 -42 0 -98 7 -125 15 -57 17 -84 17 -146 -1z
m11 -294 l-48 -285 -41 -6 -40 -5 -6 55 c-4 31 -13 142 -21 246 -8 105 -17
205 -19 223 l-5 32 72 1 c40 0 90 6 112 13 22 7 41 12 42 11 1 0 -20 -129 -46
-285z m123 275 c27 -8 77 -15 110 -15 34 0 67 -4 75 -9 10 -7 -14 -66 -114
-277 -70 -148 -127 -269 -128 -270 -1 -1 -23 2 -48 5 l-46 6 43 255 c48 289
54 320 57 320 1 0 24 -7 51 -15z m-320 -47 c3 -13 12 -115 21 -228 9 -113 18
-226 21 -251 l6 -46 -48 -17 c-56 -19 -54 -19 -54 -6 0 6 -41 117 -91 247 -49
130 -86 239 -82 243 4 4 34 12 67 18 32 7 77 23 100 36 52 30 55 31 60 4z
m595 -21 c27 -19 69 -40 95 -47 26 -7 45 -16 44 -20 -2 -5 -88 -114 -193 -243
l-190 -234 -32 15 c-18 9 -33 19 -33 23 0 9 252 539 257 539 2 0 25 -15 52
-33z m-778 -238 c39 -101 81 -212 94 -246 l23 -61 -49 -31 -49 -30 -165 194
-165 195 67 34 c38 19 90 57 117 85 28 28 51 49 53 48 1 -2 34 -86 74 -188z
m1040 70 l40 -20 -73 -56 c-101 -78 -164 -131 -296 -246 -112 -99 -113 -99
-138 -82 l-25 16 37 47 c107 133 264 324 307 375 l50 58 29 -36 c17 -19 48
-45 69 -56z m49 -42 c0 -2 -36 -32 -80 -66 -44 -34 -80 -60 -80 -57 0 5 152
126 158 126 1 0 2 -2 2 -3z m-1240 -226 l156 -183 -35 -38 -35 -39 -45 32
c-25 18 -115 82 -199 142 l-154 108 49 46 c27 25 57 63 68 84 11 20 24 36 30
34 5 -2 80 -86 165 -186z m1391 -17 c19 -11 35 -28 37 -37 4 -19 -46 -109 -57
-102 -8 4 1 -72 14 -125 l7 -25 -29 26 c-90 85 -250 107 -453 63 -23 -6 -23
-5 5 13 54 35 169 75 250 88 l80 13 -55 1 c-64 1 -136 -16 -214 -52 -31 -15
-54 -22 -51 -17 12 19 -17 9 -63 -21 -59 -40 -47 -27 50 53 132 110 231 149
364 145 59 -2 90 -9 115 -23z m-1506 -124 c166 -116 191 -137 180 -150 -7 -8
-16 -25 -20 -38 -4 -14 -12 -21 -21 -18 -7 3 -102 37 -211 77 -246 88 -230 79
-200 115 33 40 44 62 52 112 4 24 11 42 17 40 6 -2 97 -64 203 -138z m1005 87
c0 -2 -17 -19 -37 -38 l-38 -34 34 38 c33 34 41 42 41 34z m-414 -54 c-3 -16
-10 -64 -17 -108 -6 -44 -17 -91 -25 -105 l-13 -25 -1 25 c0 14 -5 69 -10 124
-5 54 -7 102 -4 107 3 5 21 9 40 9 33 0 35 -2 30 -27z m106 21 c12 -12 -68
-177 -90 -185 -25 -10 -25 -11 -12 67 6 32 13 74 16 92 5 30 8 32 43 32 21 0
40 -3 43 -6z m-186 -171 c4 -66 3 -103 -3 -103 -13 0 -97 226 -88 239 3 6 20
14 38 19 39 10 42 1 53 -155z m272 129 c-17 -38 -96 -132 -111 -132 -22 0 -19
11 24 107 l29 64 30 -16 c17 -9 30 -19 28 -23z m-349 -112 c46 -123 47 -130
27 -130 -13 0 -156 169 -156 184 0 6 72 56 81 56 4 0 25 -50 48 -110z m402 84
c17 -21 -66 -108 -100 -102 -20 3 -19 6 20 61 42 59 58 68 80 41z m29 -27 c0
-2 -15 -16 -32 -33 l-33 -29 29 33 c28 30 36 37 36 29z m-515 -94 c80 -101 79
-100 51 -105 -23 -5 -166 87 -174 111 -3 9 46 71 56 71 4 -1 34 -35 67 -77z
m549 68 c7 -10 -29 -35 -63 -44 -23 -6 -23 -5 5 24 28 29 48 36 58 20z m-982
-77 c117 -42 220 -80 228 -86 21 -13 22 -13 -220 71 -219 76 -252 89 -233 90
7 1 109 -33 225 -75z m1258 61 c0 -3 -7 -22 -15 -42 -8 -19 -15 -46 -15 -58 0
-29 -67 -38 -302 -39 -92 -1 -171 -5 -175 -10 -4 -4 84 -6 196 -4 198 3 202 3
164 -14 -82 -36 -201 -51 -337 -43 -136 8 -145 13 -110 63 14 20 12 26 -8 23
-19 -3 -5 30 19 46 20 13 59 19 167 25 92 5 178 16 246 32 100 24 170 32 170
21z m-898 -111 c35 -25 65 -48 68 -51 10 -12 -103 7 -117 19 -27 22 -39 78
-17 78 2 0 32 -21 66 -46z m1241 -14 c3 -10 -3 -26 -12 -34 -15 -13 -16 -11
-16 29 0 44 17 47 28 5z m-1282 -57 c47 -43 118 -67 203 -67 93 -1 108 -16 41
-41 -88 -34 -229 0 -276 67 -12 16 -24 51 -26 76 l-5 47 20 -30 c11 -16 30
-40 43 -52z m264 -5 c0 -50 -55 -62 -151 -33 -78 23 -96 41 -37 37 27 -2 77 4
113 11 36 8 67 15 70 16 3 1 5 -14 5 -31z m82 -125 c-100 -118 -113 -129 -121
-107 -8 21 70 105 94 101 8 -1 15 5 15 13 0 26 45 80 66 80 16 0 5 -18 -54
-87z m316 -93 c45 -22 69 -38 52 -34 -112 23 -181 67 -223 142 l-23 41 56 -54
c35 -34 86 -69 138 -95z m97 84 c63 3 160 9 215 12 187 11 252 -59 169 -182
-16 -23 -22 -40 -15 -42 17 -6 13 -34 -12 -74 -42 -69 -112 -108 -260 -143
-56 -14 -112 -28 -124 -31 -14 -4 -23 -2 -23 5 0 20 46 40 164 70 118 31 188
62 226 103 34 36 13 32 -32 -6 -42 -37 -102 -59 -270 -101 -71 -18 -108 -44
-108 -75 0 -21 -40 -37 -59 -25 -33 20 20 74 93 95 25 7 46 17 46 22 0 26
-141 -42 -160 -76 -14 -26 -13 -29 8 -46 l22 -18 -25 -16 c-24 -16 -26 -16
-50 8 -30 31 -31 45 -4 80 38 48 98 70 279 101 99 17 197 54 226 86 11 12 -6
7 -52 -16 -48 -24 -103 -40 -184 -55 -170 -30 -214 -45 -260 -89 -48 -46 -53
-82 -14 -122 25 -26 25 -28 9 -53 -15 -23 -22 -26 -54 -20 -57 10 -127 40
-199 83 -112 67 -159 84 -239 85 -82 1 -81 5 3 61 112 75 250 110 492 125 263
18 349 37 442 99 69 46 100 112 65 141 -12 10 -13 7 -9 -22 5 -28 0 -38 -27
-66 -43 -44 -101 -73 -120 -61 -8 5 -57 23 -109 40 -114 38 -217 90 -254 128
l-27 28 58 -19 c50 -17 74 -19 173 -14z m-500 -17 c0 -2 -15 -16 -32 -33 l-33
-29 29 33 c28 30 36 37 36 29z m165 -47 c16 -26 -14 -12 -40 19 l-30 35 32
-22 c18 -13 35 -27 38 -32z m-22 -43 c-7 -11 -16 0 -31 38 l-12 30 24 -29 c14
-17 22 -34 19 -39z m-104 5 c-6 -18 -17 -32 -25 -32 -20 0 -17 13 7 44 26 33
33 29 18 -12z m74 -24 c-11 -20 -23 -4 -23 30 l1 37 13 -30 c7 -16 11 -33 9
-37z m-43 17 c0 -25 -4 -35 -16 -35 -11 0 -14 5 -9 18 4 9 10 25 12 35 8 27
13 20 13 -18z"/>
<path d="M1829 1416 c-56 -20 -112 -51 -117 -64 -2 -7 13 -3 33 9 21 13 65 33
99 45 33 13 52 23 41 23 -11 0 -36 -6 -56 -13z"/>
<path d="M2025 1390 c3 -5 13 -10 21 -10 8 0 12 5 9 10 -3 6 -13 10 -21 10 -8
0 -12 -4 -9 -10z"/>
<path d="M1440 670 c0 -19 3 -21 12 -12 9 9 9 15 0 24 -9 9 -12 7 -12 -12z"/>
<path d="M1559 658 c4 -12 14 -24 21 -26 7 -3 10 0 6 7 -5 7 1 11 13 11 12 0
21 5 21 11 0 6 -9 8 -20 4 -11 -4 -20 -2 -20 4 0 6 -7 11 -15 11 -11 0 -12 -6
-6 -22z"/>
<path d="M1410 664 c0 -15 44 -48 47 -37 2 6 13 9 23 6 12 -3 20 0 20 7 0 7
-7 10 -16 6 -14 -5 -15 -4 -4 9 8 9 9 15 2 15 -6 0 -15 -8 -21 -17 -9 -17 -11
-16 -30 1 -12 11 -21 15 -21 10z"/>
<path d="M1185 640 c-3 -6 3 -22 14 -37 27 -33 18 -43 -12 -15 -27 25 -47 28
-47 8 0 -8 16 -20 36 -26 48 -16 60 -4 44 44 -12 36 -23 45 -35 26z"/>
<path d="M1244 626 c-3 -14 -4 -33 -2 -43 3 -14 7 -12 21 14 21 39 21 53 2 53
-8 0 -17 -11 -21 -24z"/>
<path d="M1390 630 c0 -5 10 -10 23 -11 12 0 16 -3 10 -6 -7 -2 -13 -9 -13
-15 0 -6 6 -8 14 -5 7 3 19 0 25 -6 8 -8 11 -7 11 6 0 10 5 14 15 11 8 -4 15
-1 15 5 0 14 -27 14 -35 0 -5 -6 -13 -3 -22 10 -15 22 -43 29 -43 11z"/>
<path d="M1285 590 c-16 -16 -37 -30 -47 -30 -10 0 -18 -7 -18 -15 0 -8 -13
-24 -30 -37 -27 -20 -41 -48 -23 -48 4 0 28 22 53 49 25 27 63 56 84 65 21 9
36 21 34 28 -8 22 -24 18 -53 -12z"/>
<path d="M1130 540 c-10 -6 -11 -13 -5 -19 11 -11 85 8 85 21 0 11 -62 10 -80
-2z"/>
<path d="M1263 536 c-7 -8 -16 -16 -22 -17 -17 -7 -18 -74 -1 -74 11 0 14 9
12 38 -4 45 2 47 23 7 9 -16 22 -30 30 -30 22 0 19 10 -12 42 -27 28 -18 37
18 17 12 -6 28 -8 37 -4 15 6 15 8 -2 21 -25 18 -67 18 -83 0z"/>
<path d="M1340 445 c-7 -8 -9 -15 -4 -16 5 0 0 -4 -11 -9 -18 -8 -17 -9 8 -9
16 -1 26 3 22 9 -3 6 -1 10 4 10 21 0 11 -21 -14 -30 -33 -13 -32 -17 5 -16
17 1 30 5 29 10 0 5 5 12 12 16 9 6 8 12 -4 25 -10 9 -17 13 -17 8 0 -4 -4 -2
-9 5 -6 10 -10 10 -21 -3z"/>
<path d="M2087 2014 c-4 -4 -7 -16 -7 -26 0 -11 -11 -23 -27 -29 l-27 -10 24
-12 c14 -7 26 -23 28 -35 4 -28 22 -29 22 -2 0 14 11 26 33 35 l32 13 -27 7
c-20 5 -30 16 -36 37 -4 16 -11 26 -15 22z"/>
    </g>
  
</svg>
