<svg viewBox="0 -20 440 300" xmlns="http://www.w3.org/2000/svg">
  <defs>
    <linearGradient id="g" gradientUnits="userSpaceOnUse" x1="20" y1="40" x2="420" y2="260">
      <stop offset="0%" stop-color="#F2967F"/>
      <stop offset="45%" stop-color="#E85D4A"/>
      <stop offset="100%" stop-color="#D9503C"/>
    </linearGradient>
    <linearGradient id="gGold" x1="15%" y1="0%" x2="90%" y2="100%">
      <stop offset="0%" stop-color="#F7D774"/>
      <stop offset="55%" stop-color="#F2A94C"/>
      <stop offset="100%" stop-color="#E8823C"/>
    </linearGradient>
    <radialGradient id="cloudFill" cx="55%" cy="60%" r="65%">
      <stop offset="0%" stop-color="#3A2A38"/>
      <stop offset="100%" stop-color="#0E1730"/>
    </radialGradient>
    <filter id="goo">
      <feGaussianBlur in="SourceGraphic" stdDeviation="9" result="blur"/>
      <feColorMatrix in="blur" mode="matrix" values="1 0 0 0 0  0 1 0 0 0  0 0 1 0 0  0 0 0 22 -10" result="goo"/>
    </filter>
  </defs>
  <g filter="url(#goo)">
    <g fill="url(#g)">
      <circle cx="60" cy="185" r="42"/>
      <circle cx="120" cy="150" r="55"/>
      <circle cx="195" cy="100" r="68"/>
      <circle cx="280" cy="88" r="72"/>
      <circle cx="355" cy="130" r="78"/>
      <circle cx="335" cy="195" r="45"/>
      <circle cx="200" cy="205" r="48"/>
      <rect x="70" y="185" width="290" height="45" rx="20"/>
    </g>
  </g>
  <g filter="url(#goo)">
    <g fill="url(#cloudFill)">
      <circle cx="60" cy="185" r="35"/>
      <circle cx="120" cy="150" r="48"/>
      <circle cx="195" cy="100" r="61"/>
      <circle cx="280" cy="88" r="65"/>
      <circle cx="355" cy="130" r="71"/>
      <circle cx="335" cy="195" r="38"/>
      <circle cx="200" cy="205" r="41"/>
      <rect x="76" y="188" width="278" height="38" rx="17"/>
    </g>
  </g>
  <ellipse cx="228" cy="188" rx="86" ry="60" fill="#11101d" stroke="url(#gGold)" stroke-width="6.5"/>
  <g stroke="url(#gGold)" stroke-width="6.5" stroke-linecap="round">
    <line x1="228" y1="122" x2="228" y2="137"/>
    <line x1="289.6" y1="145.1" x2="278.2" y2="154.1"/>
    <line x1="312" y1="188" x2="297" y2="188"/>
    <line x1="289.6" y1="230.9" x2="278.2" y2="221.9"/>
    <line x1="228" y1="254" x2="228" y2="239"/>
    <line x1="166.4" y1="230.9" x2="177.8" y2="221.9"/>
    <line x1="144" y1="188" x2="159" y2="188"/>
    <line x1="166.4" y1="145.1" x2="177.8" y2="154.1"/>
  </g>
  <g stroke="url(#gGold)" stroke-linecap="round" stroke-linejoin="round" fill="none">
    <path d="M228,188 L216,140 L231,151 L219,105" stroke-width="9"/>
    <path d="M228,188 L275,204 L294,198 C300,196 304,200 300,204" stroke-width="9"/>
  </g>
  <circle cx="228" cy="188" r="7.5" fill="url(#gGold)"/>
  <g fill="none" stroke="url(#g)" stroke-linecap="round" stroke-linejoin="round">
    <path d="M348,50 L376,50 L348,78 L380,78" stroke-width="9"/>
    <path d="M376,16 L398,16 L376,38 L400,38" stroke-width="7.5"/>
    <path d="M394,-8 L410,-8 L394,8 L412,8" stroke-width="6"/>
  </g>
</svg>
